<svg width="30" height="30" viewBox="0 0 30 30" fill="none" xmlns="http://www.w3.org/2000/svg">
    <defs>
        <clipPath id="clip0_187_274">
            <rect width="30" height="30" fill="white" />
        </clipPath>
    </defs>
    <g clip-path="url(#clip0_187_274)">
        <path
            d="M25.6697 16.0149H23.3496C23.5861 16.6624 23.7153 17.3611 23.7153 18.0893V26.8579C23.7153 27.1616 23.6624 27.453 23.5663 27.7241H27.4019C28.8347 27.7241 30.0003 26.5584 30.0003 25.1257V20.3455C30.0004 17.9576 28.0576 16.0149 25.6697 16.0149Z"
            fill="white" />
        <path
            d="M6.28507 18.0893C6.28507 17.361 6.41427 16.6624 6.65076 16.0149H4.33067C1.94274 16.0149 0 17.9576 0 20.3456V25.1257C0 26.5584 1.16561 27.7241 2.5984 27.7241H6.43408C6.33792 27.4529 6.28507 27.1616 6.28507 26.8579V18.0893Z"
            fill="white" />
        <path
            d="M17.6523 13.7588H12.3483C9.96032 13.7588 8.01758 15.7015 8.01758 18.0895V26.858C8.01758 27.3363 8.40535 27.7242 8.88371 27.7242H21.1168C21.5952 27.7242 21.983 27.3364 21.983 26.858V18.0895C21.983 15.7015 20.0402 13.7588 17.6523 13.7588Z"
            fill="white" />
        <path
            d="M15.0002 2.27588C12.1284 2.27588 9.79199 4.61225 9.79199 7.48411C9.79199 9.43207 10.8671 11.1333 12.4549 12.0265C13.208 12.4502 14.0763 12.6923 15.0002 12.6923C15.9241 12.6923 16.7923 12.4502 17.5454 12.0265C19.1333 11.1333 20.2083 9.43201 20.2083 7.48411C20.2083 4.61231 17.872 2.27588 15.0002 2.27588Z"
            fill="white" />
        <path
            d="M5.85499 7.13013C3.70723 7.13013 1.95996 8.8774 1.95996 11.0252C1.95996 13.1729 3.70723 14.9202 5.85499 14.9202C6.39979 14.9202 6.91858 14.8073 7.38985 14.6045C8.20466 14.2537 8.8765 13.6327 9.29222 12.8549C9.58402 12.3089 9.75002 11.6862 9.75002 11.0252C9.75002 8.87745 8.00275 7.13013 5.85499 7.13013Z"
            fill="white" />
        <path
            d="M24.145 7.13013C21.9973 7.13013 20.25 8.8774 20.25 11.0252C20.25 11.6862 20.416 12.309 20.7078 12.8549C21.1235 13.6328 21.7954 14.2537 22.6102 14.6045C23.0814 14.8073 23.6002 14.9202 24.145 14.9202C26.2928 14.9202 28.0401 13.1729 28.0401 11.0252C28.0401 8.8774 26.2928 7.13013 24.145 7.13013Z"
            fill="white" />
    </g>

</svg>
