<svg width="20" height="20" viewBox="0 0 20 20" fill="none" xmlns="http://www.w3.org/2000/svg">
<path fill-rule="evenodd" clip-rule="evenodd" d="M16.9107 10.6857C17.2435 10.6399 17.5 10.3504 17.5 10.0001C17.5 9.61795 17.1947 9.30816 16.8182 9.30816L4.83339 9.30816L9.16276 4.93222L9.22893 4.85475C9.42753 4.58429 9.40631 4.19984 9.16475 3.95368C8.89904 3.6829 8.46733 3.68199 8.20052 3.95165L2.71023 9.50036C2.67753 9.53215 2.64794 9.56722 2.62198 9.60504C2.43614 9.87525 2.46234 10.2501 2.70056 10.4908L8.20056 16.0484L8.27717 16.1152C8.54452 16.3156 8.92325 16.2925 9.16479 16.0463C9.43048 15.7755 9.42955 15.3374 9.16271 15.0677L4.83231 10.692L16.8182 10.692L16.9107 10.6857Z" fill="#595D5F"/>
</svg>
