<svg width="22" height="22" viewBox="0 0 22 22" fill="none" xmlns="http://www.w3.org/2000/svg">
<g clip-path="url(#clip0_189_399)">
<path d="M8.93452 12.3634H2.83552C2.45979 12.3634 2.1555 12.6664 2.1555 13.0407C2.1555 13.4144 2.45979 13.718 2.83552 13.718H7.3416L0 21.0286L0.961637 21.9862L8.29565 14.6824L8.27437 19.1335C8.27437 19.5071 8.57867 19.8107 8.9544 19.8107C9.33012 19.8107 9.63442 19.5078 9.63442 19.1335V13.04C9.63442 12.8394 9.55131 12.6773 9.41942 12.566C9.29511 12.4424 9.12407 12.3634 8.93452 12.3634ZM19.1652 8.28186H14.6591L22 0.971211L21.0383 0.0136719L13.705 7.31746L13.7263 2.86634C13.7263 2.49266 13.422 2.18905 13.0463 2.18905C12.6706 2.18905 12.3663 2.49198 12.3663 2.86634V8.95984C12.3663 9.16042 12.4494 9.32251 12.5805 9.43312C12.7042 9.55815 12.8746 9.63713 13.0648 9.63713H19.1638C19.5395 9.63713 19.8439 9.33419 19.8439 8.95984C19.8445 8.58547 19.5402 8.28186 19.1652 8.28186Z" fill="white"/>
</g>
<defs>
<clipPath id="clip0_189_399">
<rect width="22" height="22" fill="white"/>
</clipPath>
</defs>
</svg>
