<svg width="29" height="30" viewBox="0 0 29 30" fill="none" xmlns="http://www.w3.org/2000/svg">
    <path
        d="M26.3549 3.25423C26.2936 3.25174 26.2322 3.25132 26.1709 3.25305H23.8576V1.26508C23.8577 0.46989 23.0986 0 22.3034 0H20.1709C19.3757 0 18.7974 0.46989 18.7974 1.26508V3.25298H10.1227V1.26508C10.1227 0.46989 9.54442 0 8.74923 0H6.61667C5.82155 0 5.06247 0.46989 5.06247 1.26508V3.25298H2.74927C1.27263 3.21182 0.0422145 4.37554 0.00105069 5.85211C-0.000678885 5.91341 -0.000263774 5.97484 0.00222681 6.03614V26.9277C0.00222681 28.518 1.15883 29.9999 2.7492 29.9999H26.1709C27.7613 29.9999 28.9179 28.518 28.9179 26.9277V6.03614C28.9784 4.56019 27.8309 3.31469 26.3549 3.25423ZM20.1709 1.44578H22.4119V5.42166H20.1709V1.44578ZM6.61674 1.44578H8.67701V5.42166H6.61674V1.44578ZM27.4721 26.9277C27.4721 27.7228 26.9661 28.5541 26.1709 28.5541H2.74927C1.95408 28.5541 1.44808 27.7228 1.44808 26.9277V11.5663H27.4721V26.9277ZM27.4721 6.03614V10.1205H1.44801V6.03614C1.38678 5.36022 1.88511 4.76262 2.56103 4.7014C2.62357 4.69572 2.68652 4.69489 2.7492 4.69883H5.06247V5.49402C5.06247 6.28921 5.82148 6.86751 6.61667 6.86751H8.74923C9.48755 6.88778 10.1025 6.30561 10.1227 5.56729C10.1234 5.54287 10.1234 5.51845 10.1227 5.49402V4.69877H18.7974V5.49395C18.7772 6.23228 19.3593 6.84717 20.0977 6.86744C20.1221 6.86813 20.1465 6.86813 20.1709 6.86744H22.3035C23.0987 6.86744 23.8577 6.28914 23.8577 5.49395V4.69877H26.1709C26.8483 4.65608 27.432 5.17059 27.4747 5.84796C27.4786 5.91064 27.4778 5.9736 27.4721 6.03614Z"
        fill="#020125" />
    <path
        d="M10.4477 21.4336L9.79712 25.0481C9.77138 25.2031 9.79684 25.3624 9.86969 25.5016C10.0548 25.8554 10.4916 25.9921 10.8453 25.8071L14.0983 24.1083L17.3513 25.8071L17.6766 25.8794C17.8334 25.8821 17.9865 25.8311 18.1103 25.7348C18.3263 25.577 18.4375 25.3128 18.3995 25.048L17.7489 21.4335L20.3874 18.9035C20.5762 18.6994 20.6447 18.4116 20.5681 18.1445C20.4708 17.8975 20.2515 17.7193 19.9898 17.6746L16.3754 17.1324L14.7489 13.8432C14.678 13.6968 14.5598 13.5786 14.4134 13.5077C14.0541 13.3337 13.6218 13.4839 13.4477 13.8432L11.8212 17.1324L8.20674 17.6746C7.94509 17.7193 7.72578 17.8975 7.62844 18.1445C7.55185 18.4116 7.62041 18.6994 7.80914 18.9035L10.4477 21.4336ZM12.4357 18.5059C12.6627 18.472 12.855 18.3209 12.9417 18.1083L14.0983 15.7951L15.2549 18.1083C15.3416 18.3209 15.5339 18.472 15.7609 18.5059L18.3272 18.8673L16.4838 20.6384C16.3121 20.8084 16.2315 21.05 16.2669 21.289L16.7006 23.8553L14.4235 22.6264L14.0982 22.5541L13.7729 22.6264L11.4958 23.8553L11.9295 21.289C11.965 21.05 11.8844 20.8084 11.7127 20.6384L9.86927 18.8673L12.4357 18.5059Z"
        fill="#020125" />
</svg>
