<svg width="22" height="22" viewBox="0 0 22 22" fill="none" xmlns="http://www.w3.org/2000/svg">
<g clip-path="url(#clip0_189_419)">
<path d="M21.9958 0.826203C21.9944 0.812625 21.9919 0.799477 21.99 0.786113C21.9876 0.769914 21.9857 0.753672 21.9826 0.737559C21.9795 0.722176 21.9753 0.707266 21.9715 0.692184C21.968 0.678305 21.9649 0.66434 21.9608 0.65059C21.9563 0.635766 21.9507 0.621457 21.9455 0.606977C21.9406 0.59327 21.9361 0.579434 21.9305 0.565898C21.9249 0.552363 21.9183 0.53943 21.9121 0.526238C21.9055 0.512316 21.8993 0.498266 21.892 0.484602C21.8852 0.471969 21.8775 0.459938 21.8702 0.447648C21.8622 0.434285 21.8546 0.42075 21.8459 0.407688C21.8369 0.394109 21.8267 0.381348 21.817 0.368285C21.8088 0.357414 21.8012 0.346242 21.7926 0.335629C21.7735 0.312469 21.7535 0.290168 21.7323 0.268984C21.7321 0.268813 21.732 0.268641 21.7318 0.268469C21.7317 0.268297 21.7315 0.268211 21.7314 0.268039C21.7101 0.246855 21.6879 0.226789 21.6647 0.207754C21.6541 0.199031 21.6429 0.191469 21.632 0.183305C21.619 0.173551 21.6062 0.163453 21.5926 0.154387C21.5796 0.145664 21.566 0.138102 21.5526 0.130109C21.5403 0.122762 21.5283 0.11507 21.5157 0.108281C21.502 0.100977 21.488 0.0947891 21.4741 0.0882149C21.4609 0.0819844 21.4479 0.0754102 21.4344 0.0697813C21.4209 0.0641953 21.407 0.0596406 21.3933 0.0547422C21.3788 0.049543 21.3645 0.044 21.3498 0.0395313C21.336 0.0353633 21.322 0.0323125 21.3081 0.028832C21.293 0.0250078 21.2781 0.0207969 21.2628 0.0177461C21.2467 0.0145664 21.2304 0.0126328 21.2142 0.0103125C21.2009 0.00842188 21.1877 0.00584375 21.1741 0.00451172C21.144 0.00158984 21.1139 0 21.0837 0H14.667C14.1607 0 13.7503 0.410395 13.7503 0.916652C13.7503 1.42291 14.1607 1.8333 14.667 1.8333H18.8706L12.1855 8.51847C11.8275 8.87644 11.8275 9.45686 12.1855 9.81484C12.5434 10.1728 13.1239 10.1728 13.4818 9.81484L20.167 3.12971V7.33335C20.167 7.83961 20.5774 8.25 21.0836 8.25C21.5899 8.25 22.0003 7.83961 22.0003 7.33335V0.916738C22.0003 0.886488 21.9987 0.856281 21.9958 0.826203Z" fill="white"/>
<path d="M8.51847 12.185L1.83335 18.8701V14.6665C1.83335 14.1603 1.42295 13.7499 0.916695 13.7499C0.410394 13.7499 0 14.1603 0 14.6665V21.0832C0 21.1134 0.00158984 21.1435 0.00455469 21.1736C0.00588672 21.1872 0.00842187 21.2003 0.0103555 21.2137C0.0126758 21.2299 0.0145664 21.2462 0.0177891 21.2623C0.0208398 21.2776 0.0250508 21.2925 0.028875 21.3076C0.0323555 21.3215 0.0354062 21.3355 0.0395742 21.3492C0.044043 21.364 0.0495859 21.3783 0.0547852 21.3928C0.0597266 21.4065 0.0642383 21.4203 0.0698242 21.4339C0.0754101 21.4474 0.0820273 21.4603 0.0882578 21.4735C0.094832 21.4875 0.10102 21.5015 0.108324 21.5152C0.115113 21.5278 0.122805 21.5398 0.130152 21.5521C0.138145 21.5654 0.145707 21.579 0.15443 21.5921C0.163496 21.6057 0.173594 21.6184 0.183348 21.6314C0.191512 21.6424 0.199074 21.6535 0.207797 21.6641C0.226832 21.6874 0.246898 21.7097 0.268082 21.7308C0.268254 21.731 0.26834 21.7312 0.268512 21.7313C0.268684 21.7315 0.268855 21.7316 0.269027 21.7318C0.290211 21.7529 0.312512 21.773 0.335672 21.792C0.346285 21.8007 0.357457 21.8083 0.368328 21.8164C0.381391 21.8262 0.394152 21.8363 0.40773 21.8454C0.42075 21.8541 0.434285 21.8617 0.447691 21.8697C0.45998 21.877 0.471969 21.8847 0.484645 21.8915C0.498309 21.8988 0.512359 21.905 0.526281 21.9116C0.539473 21.9178 0.552449 21.9244 0.565941 21.93C0.579476 21.9355 0.593269 21.94 0.607019 21.945C0.6215 21.9502 0.635809 21.9557 0.650633 21.9602C0.664383 21.9644 0.678348 21.9675 0.692227 21.9709C0.707309 21.9748 0.722219 21.979 0.737602 21.982C0.753715 21.9852 0.769957 21.9871 0.786156 21.9894C0.799519 21.9913 0.812711 21.9939 0.826246 21.9952C0.856324 21.9982 0.886488 21.9998 0.916652 21.9998H7.33335C7.8396 21.9998 8.25 21.5894 8.25 21.0831C8.25 20.5769 7.8396 20.1665 7.33335 20.1665H3.12971L9.81488 13.4813C10.1729 13.1233 10.1729 12.5429 9.81488 12.1849C9.45691 11.827 8.87648 11.8271 8.51847 12.185Z" fill="white"/>
</g>
<defs>
<clipPath id="clip0_189_419">
<rect width="22" height="22" fill="white"/>
</clipPath>
</defs>
</svg>
