<svg width="21" height="21" viewBox="0 0 21 21" fill="none" xmlns="http://www.w3.org/2000/svg">
<path d="M19.1543 3.11719H1.8457C0.825932 3.11719 0 3.94825 0 4.96289V16.0371C0 17.0578 0.832002 17.8828 1.8457 17.8828H19.1543C20.1655 17.8828 21 17.0613 21 16.0371V4.96289C21 3.95005 20.1773 3.11719 19.1543 3.11719ZM18.8958 4.34766C18.5187 4.72274 12.0292 11.1781 11.8051 11.401C11.4565 11.7496 10.993 11.9416 10.5 11.9416C10.007 11.9416 9.54352 11.7496 9.19373 11.3998C9.04304 11.2499 2.62512 4.86585 2.10418 4.34766H18.8958ZM1.23047 15.7867V5.21411L6.54765 10.5033L1.23047 15.7867ZM2.10496 16.6523L7.42005 11.371L8.32482 12.2711C8.90585 12.8521 9.67833 13.172 10.5 13.172C11.3217 13.172 12.0942 12.8521 12.674 12.2722L13.5799 11.371L18.895 16.6523H2.10496ZM19.7695 15.7867L14.4523 10.5033L19.7695 5.21411V15.7867Z" fill="white"/>
</svg>
