<svg width="30" height="30" viewBox="0 0 30 30" fill="none" xmlns="http://www.w3.org/2000/svg">
<path d="M11.6062 22.8052H4.751C4.37613 22.8052 4.07227 23.109 4.07227 23.4839C4.07227 23.8588 4.37613 24.1626 4.751 24.1626H11.6062C11.9811 24.1626 12.2849 23.8588 12.2849 23.4839C12.2849 23.109 11.9811 22.8052 11.6062 22.8052Z" fill="white"/>
<path d="M21.8552 22.8052H15C14.6252 22.8052 14.3213 23.109 14.3213 23.4839C14.3213 23.8588 14.6252 24.1626 15 24.1626H21.8552C22.23 24.1626 22.534 23.8588 22.534 23.4839C22.534 23.109 22.23 22.8052 21.8552 22.8052Z" fill="white"/>
<path d="M21.8551 5.83691H4.751C4.37613 5.83691 4.07227 6.14078 4.07227 6.51565C4.07227 6.89051 4.37613 7.19438 4.751 7.19438H21.8551C22.2299 7.19438 22.5338 6.89051 22.5338 6.51565C22.5338 6.14078 22.2299 5.83691 21.8551 5.83691Z" fill="white"/>
<path d="M21.8552 9.23047H15C14.6252 9.23047 14.3213 9.53434 14.3213 9.9092C14.3213 10.2841 14.6252 10.5879 15 10.5879H21.8552C22.23 10.5879 22.534 10.2841 22.534 9.9092C22.534 9.53434 22.23 9.23047 21.8552 9.23047Z" fill="white"/>
<path d="M21.8552 12.6245H15C14.6252 12.6245 14.3213 12.9284 14.3213 13.3032C14.3213 13.6781 14.6252 13.982 15 13.982H21.8552C22.23 13.982 22.534 13.6781 22.534 13.3032C22.534 12.9284 22.23 12.6245 21.8552 12.6245Z" fill="white"/>
<path d="M21.8552 16.0181H15C14.6252 16.0181 14.3213 16.3219 14.3213 16.6968C14.3213 17.0717 14.6252 17.3755 15 17.3755H21.8552C22.23 17.3755 22.534 17.0717 22.534 16.6968C22.534 16.3219 22.23 16.0181 21.8552 16.0181Z" fill="white"/>
<path d="M21.8552 19.4116H15C14.6252 19.4116 14.3213 19.7155 14.3213 20.0904C14.3213 20.4652 14.6252 20.7691 15 20.7691H21.8552C22.23 20.7691 22.534 20.4652 22.534 20.0904C22.534 19.7155 22.23 19.4116 21.8552 19.4116Z" fill="white"/>
<path d="M11.6062 19.4116H4.751C4.37613 19.4116 4.07227 19.7155 4.07227 20.0904C4.07227 20.4652 4.37613 20.7691 4.751 20.7691H11.6062C11.9811 20.7691 12.2849 20.4652 12.2849 20.0904C12.2849 19.7155 11.9811 19.4116 11.6062 19.4116Z" fill="white"/>
<path d="M11.6062 9.23047H4.751C4.37613 9.23047 4.07227 9.53434 4.07227 9.9092V16.7644C4.07227 17.1393 4.37613 17.4431 4.751 17.4431H11.6062C11.9811 17.4431 12.2849 17.1393 12.2849 16.7644V9.9092C12.2849 9.53434 11.9811 9.23047 11.6062 9.23047ZM10.9275 16.0857H5.42973V10.5879H10.9275V16.0857Z" fill="white"/>
<path d="M28.6425 5.15831H26.6063V3.12211C26.6063 2.37361 25.9974 1.76465 25.2489 1.76465H1.35747C0.608959 1.76465 0 2.37361 0 3.12211V24.8416C0 26.7128 1.5224 28.2352 3.39367 28.2352H26.6063C28.4776 28.2352 30 26.7128 30 24.8416V6.51578C30 5.76727 29.391 5.15831 28.6425 5.15831ZM28.6425 24.8416C28.6425 25.9643 27.7291 26.8778 26.6063 26.8778H3.39367C2.27091 26.8778 1.35747 25.9643 1.35747 24.8416V3.12211H25.2489V23.8235C25.2489 24.7591 26.0101 25.5203 26.9457 25.5203C27.3205 25.5203 27.6244 25.2164 27.6244 24.8416C27.6244 24.4667 27.3205 24.1628 26.9457 24.1628C26.7586 24.1628 26.6063 24.0106 26.6063 23.8235V6.51578H28.6425V24.8416Z" fill="white"/>
</svg>
