<svg width="21" height="21" viewBox="0 0 21 21" fill="none" xmlns="http://www.w3.org/2000/svg">
<g clip-path="url(#clip0_189_516)">
<path d="M4.27952 13.9594C6.3508 16.4353 8.84417 18.3848 11.69 19.7642C12.7735 20.2777 14.2225 20.8869 15.8369 20.9913C15.937 20.9956 16.0327 21 16.1328 21C17.2163 21 18.0866 20.6258 18.7959 19.8556C18.8002 19.8512 18.8089 19.8425 18.8133 19.8338C19.0657 19.5292 19.3529 19.2551 19.6531 18.9635C19.8576 18.7677 20.0665 18.5632 20.2667 18.3543C21.1935 17.3883 21.1935 16.1612 20.258 15.2257L17.6428 12.6104C17.1989 12.1492 16.668 11.9055 16.1111 11.9055C15.5541 11.9055 15.0189 12.1492 14.562 12.6061L13.0041 14.1639C12.8605 14.0812 12.7126 14.0073 12.5733 13.9376C12.3993 13.8506 12.2383 13.7679 12.0947 13.6765C10.6761 12.7758 9.3881 11.6009 8.15665 10.091C7.53439 9.30336 7.11666 8.64194 6.82511 7.96747C7.23414 7.5976 7.61707 7.21032 7.98694 6.83174C8.11749 6.69685 8.25238 6.56196 8.38727 6.42706C8.85723 5.95711 9.10961 5.41318 9.10961 4.86055C9.10961 4.30792 8.86158 3.76399 8.38727 3.29403L7.09055 1.99731C6.93825 1.84501 6.79465 1.69706 6.6467 1.54476C6.35951 1.24886 6.05926 0.94426 5.76336 0.67012C5.31516 0.230626 4.78864 0 4.23166 0C3.67903 0 3.14815 0.230626 2.68255 0.674472L1.05511 2.30191C0.46332 2.8937 0.12826 3.61169 0.0586367 4.44281C-0.0240405 5.4828 0.167422 6.58806 0.663485 7.92395C1.42499 9.99088 2.57376 11.9099 4.27952 13.9594ZM1.12039 4.53419C1.1726 3.95545 1.39453 3.47244 1.81226 3.0547L3.43099 1.43597C3.68338 1.19229 3.96187 1.0661 4.23166 1.0661C4.4971 1.0661 4.76688 1.19229 5.01491 1.44467C5.30646 1.71446 5.5806 1.99731 5.8765 2.29755C6.02445 2.44985 6.17675 2.60215 6.32905 2.75881L7.62577 4.05553C7.89556 4.32532 8.03481 4.59946 8.03481 4.86925C8.03481 5.13904 7.89556 5.41318 7.62577 5.68297C7.49088 5.81786 7.35598 5.95711 7.22109 6.092C6.81641 6.50104 6.43783 6.88831 6.0201 7.25818C6.01139 7.26689 6.00704 7.27124 5.99834 7.27994C5.63717 7.64111 5.69374 7.98487 5.78077 8.24596C5.78512 8.25901 5.78947 8.26772 5.79382 8.28077C6.12888 9.08578 6.59448 9.85164 7.32117 10.7654C8.6266 12.3755 10.0017 13.6243 11.516 14.586C11.7031 14.7078 11.9032 14.8036 12.0903 14.8993C12.2644 14.9863 12.4254 15.069 12.569 15.1604C12.5864 15.1691 12.5995 15.1778 12.6169 15.1865C12.7605 15.2605 12.8997 15.2953 13.039 15.2953C13.3871 15.2953 13.6133 15.0734 13.6873 14.9994L15.3147 13.3719C15.5671 13.1196 15.8413 12.9847 16.1111 12.9847C16.4418 12.9847 16.7116 13.1892 16.8813 13.3719L19.5052 15.9915C20.0273 16.5137 20.023 17.0794 19.4921 17.632C19.3094 17.8278 19.1179 18.0149 18.9134 18.2107C18.6088 18.5066 18.2911 18.8112 18.0039 19.155C17.5035 19.6946 16.9074 19.947 16.1372 19.947C16.0632 19.947 15.9849 19.9426 15.9109 19.9383C14.4836 19.8469 13.1564 19.2899 12.16 18.8156C9.45337 17.5058 7.07749 15.6477 5.1063 13.2893C3.48321 11.3355 2.391 9.51658 1.66867 7.56714C1.22047 6.37049 1.05076 5.40883 1.12039 4.53419Z" fill="white"/>
</g>
<defs>
<clipPath id="clip0_189_516">
<rect width="21" height="21" fill="white"/>
</clipPath>
</defs>
</svg>
